<svg xmlns="http://www.w3.org/2000/svg" viewBox="0 0 449.35 79.37"><defs><style>.cls-1{fill:#1aa1a9;}.cls-2{fill:#abcd03;}</style></defs><g id="圖層_2" data-name="圖層 2"><g id="圖層_1-2" data-name="圖層 1"><polygon class="cls-1" points="103.29 78.97 83.13 78.97 88.32 22.04 108.27 22.04 103.29 78.97"/><path class="cls-1" d="M157.34,17.43H120.47L114.86,79h20L139,32.84h9.8c5.32,0,9.25,4.13,8.78,9.24l-3,36.89h19.95l3.3-40C178.92,27.09,169.74,17.43,157.34,17.43Z"/><polygon class="cls-1" points="110.28 0 90.33 0 89.08 13.72 109.03 13.72 110.28 0"/><polygon class="cls-1" points="324.41 78.97 304.25 78.97 309.44 22.04 329.39 22.04 324.41 78.97"/><polygon class="cls-1" points="331.4 0 311.45 0 310.2 13.72 330.15 13.72 331.4 0"/><path class="cls-1" d="M288.46,79l4.8-15.4H276.79a3.09,3.09,0,0,1-3.2-3.35l2.5-27.38h15.4l4.8-15.41h-18.8L279.08.51,258.83,3.78,253.31,63.9C252.57,72,259.22,79,267.69,79Z"/><path class="cls-1" d="M246.28,41.37c-.07-6-1.59-12.06-5.71-16.65C236,19.57,229.18,17,220.46,17h-2a32.26,32.26,0,0,0-11.17,2,31.22,31.22,0,0,0-10,6C190.23,31.23,186.8,40,186,49a35.64,35.64,0,0,0,.82,12.07,23.5,23.5,0,0,0,12.26,14.73c5.13,2.63,11,3.54,16.79,3.54h20l4.76-15H219.49c-6.61-.28-13.86-3.22-14.6-9.8h39.44a40.21,40.21,0,0,0,1.5-6.7A41.37,41.37,0,0,0,246.28,41.37Zm-40.21.79c.75-2.5,1.45-5,3.36-6.9A10.26,10.26,0,0,1,212.74,33c3.07-1.34,8.22-1.42,11,0a8.44,8.44,0,0,1,2.79,2.28c1.51,2,1.75,4.43,1.81,6.81Z"/><path class="cls-1" d="M357.62,60.13a13.24,13.24,0,0,1-2.94-8.06,22.42,22.42,0,0,1,0-2.84,19.73,19.73,0,0,1,3.91-11c2.33-2.95,5.77-4.2,9.56-4.77a67.74,67.74,0,0,1,9.94-.65H388.3l4.8-15.41H371.46a38.4,38.4,0,0,0-9.74,1.19,31,31,0,0,0-4,1.32A34.46,34.46,0,0,0,347,26.72a33.33,33.33,0,0,0-7.26,10,37,37,0,0,0-2.53,23.91c1.71,7.4,7.39,13.31,14.55,16.25a38,38,0,0,0,14.5,2.46h18L388.93,64H367.34C363.84,64,359.93,62.77,357.62,60.13Z"/><path class="cls-1" d="M435.81,46.11a72.87,72.87,0,0,0-9.25-4,25.69,25.69,0,0,1-7-3.53,3.05,3.05,0,0,1-1.25-2.69A3.74,3.74,0,0,1,422,32.63h22.56l4.8-15.2H426.46q-11.4,0-18.37,4.84c-6.72,4.66-9.44,13.56-7.11,20.47,1.39,4.11,4.65,7.08,8.6,9,4.91,2.4,10.25,3.46,14.9,6.33a3.44,3.44,0,0,1,1.87,3.21c-.16,1.79-2.1,2.89-4,2.89h-23l-4.8,15.2h23.33c7.59-.2,15.51-1.38,20.05-4.15,4.89-3,6.95-8.74,7-14a16.89,16.89,0,0,0-2.38-9.07A17.91,17.91,0,0,0,435.81,46.11Z"/><polygon class="cls-1" points="20.78 78.97 0 78.97 7.2 0 27.98 0 20.78 78.97"/><path class="cls-1" d="M24.68,36.15,50.7,79H75c-6.51-10.6-11.83-21.5-21-29.72C46.21,42.24,35.69,36.15,24.68,36.15Z"/><path class="cls-2" d="M77.09,1.31S56.76-3.26,43.62,13.7c-5.9,7.62-10.79,15.09-18.94,22.45,9.86,0,20.46-.62,28.88-5.91A38.9,38.9,0,0,0,66.22,16.89C69.44,11.39,71.89,5.34,77.09,1.31Z"/></g></g></svg>